<?xml version="1.0" standalone="no"?>
<!DOCTYPE svg PUBLIC "-//W3C//DTD SVG 20010904//EN"
 "http://www.w3.org/TR/2001/REC-SVG-20010904/DTD/svg10.dtd">
<svg version="1.0" xmlns="http://www.w3.org/2000/svg"
 width="512.000000pt" height="512.000000pt" viewBox="0 0 512.000000 512.000000"
 preserveAspectRatio="xMidYMid meet">
<metadata>
Created by potrace 1.11, written by Peter Selinger 2001-2013
</metadata>
<g transform="translate(0.000000,512.000000) scale(0.100000,-0.100000)"
fill="#000000" stroke="none">
<path d="M3297 4814 c-3 -5 -268 -9 -589 -8 -639 0 -645 0 -705 -58 -45 -43
-55 -64 -87 -178 -15 -52 -36 -124 -46 -160 -11 -36 -76 -261 -145 -500 -125
-434 -201 -696 -256 -885 -16 -55 -36 -122 -44 -150 -8 -27 -24 -84 -36 -125
-12 -41 -24 -80 -25 -87 -1 -7 -11 -43 -23 -80 -27 -88 -29 -125 -8 -156 33
-51 34 -51 477 -53 228 -1 420 -2 427 -3 21 -2 61 -49 68 -80 7 -33 13 -12
-142 -531 -63 -212 -123 -416 -134 -455 -27 -90 -70 -237 -118 -395 -21 -69
-45 -150 -54 -180 -9 -30 -30 -100 -46 -156 -59 -194 -40 -192 109 12 35 49
128 175 205 279 78 105 215 291 306 414 90 124 198 270 239 327 41 56 134 182
206 280 360 492 386 525 403 512 14 -12 14 -11 3 4 -15 18 -2 36 361 526 118
158 133 194 97 227 -21 19 -38 20 -378 20 -374 1 -389 3 -412 46 -18 33 -3 73
98 269 52 102 101 199 109 215 8 17 18 37 22 45 4 8 72 141 151 295 78 154
181 354 228 445 101 197 112 226 100 261 -15 45 -46 53 -201 53 -78 1 -145 5
-148 9 -4 5 -9 5 -12 1z"/>
</g>
</svg>
